<svg width="50" height="50" viewBox="0 0 50 50" fill="none" xmlns="http://www.w3.org/2000/svg">
<path d="M42.0001 14.3479C36.0001 5.20893 23.7501 2.49194 14.2501 8.17291C5.00012 13.8539 2.00012 26.2038 8.00012 35.3428L8.50012 36.0838L6.50012 43.4937L14.0001 41.5177L14.7501 42.0117C18.0001 43.7407 21.5001 44.7287 25.0001 44.7287C28.7501 44.7287 32.5001 43.7407 35.7501 41.7647C45.0001 35.8368 47.7501 23.7338 42.0001 14.3479ZM36.7501 33.3668C35.7501 34.8488 34.5001 35.8368 32.7501 36.0838C31.7501 36.0838 30.5001 36.5778 25.5001 34.6018C21.2501 32.6258 17.7501 29.4148 15.2501 25.7098C13.7501 23.9808 13.0001 21.7578 12.7501 19.5349C12.7501 17.5589 13.5001 15.8299 14.7501 14.5949C15.2501 14.1009 15.7501 13.8539 16.2501 13.8539H17.5001C18.0001 13.8539 18.5001 13.8539 18.7501 14.8419C19.2501 16.0769 20.5001 19.0409 20.5001 19.2879C20.7501 19.5349 20.7501 20.0289 20.5001 20.2758C20.7501 20.7698 20.5001 21.2638 20.2501 21.5108C20.0001 21.7578 19.7501 22.2518 19.5001 22.4988C19.0001 22.7458 18.7501 23.2398 19.0001 23.7338C20.0001 25.2158 21.2501 26.6978 22.5001 27.9328C24.0001 29.1678 25.5001 30.1558 27.2501 30.8968C27.7501 31.1438 28.2501 31.1438 28.5001 30.6498C28.7501 30.1558 30.0001 28.9208 30.5001 28.4268C31.0001 27.9328 31.2501 27.9328 31.7501 28.1798L35.7501 30.1558C36.2501 30.4028 36.7501 30.6498 37.0001 30.8968C37.2501 31.6378 37.2501 32.6258 36.7501 33.3668Z" fill="#32297C"/>
</svg>
