<svg width="50" height="50" viewBox="0 0 50 50" fill="none" xmlns="http://www.w3.org/2000/svg">
<path d="M31.75 24.6999C31.75 20.9949 28.75 18.0309 25 18.0309C21.25 18.0309 18.25 20.9949 18.25 24.6999C18.25 28.4049 21.25 31.3688 25 31.3688C28.75 31.3688 31.75 28.4049 31.75 24.6999ZM35.25 24.6999C35.25 30.3808 30.75 34.8268 25 34.8268C19.25 34.8268 14.75 30.3808 14.75 24.6999C14.75 19.0189 19.25 14.5729 25 14.5729C30.75 14.5729 35.25 19.0189 35.25 24.6999ZM38 14.0789C38 15.5609 37 16.5489 35.5 16.5489C34 16.5489 33 15.5609 33 14.0789C33 12.5969 34 11.6089 35.5 11.6089C37 11.6089 38 12.8439 38 14.0789ZM25 8.39795C22 8.39795 15.75 8.15096 13.25 9.13895C11.5 9.87995 10 11.3619 9.5 13.0909C8.5 15.5609 8.75 21.7359 8.75 24.6999C8.75 27.6639 8.5 33.8388 9.5 36.3088C10 38.0378 11.5 39.5198 13.25 40.0138C15.75 41.0018 22.25 40.7548 25 40.7548C27.75 40.7548 34.25 41.0018 36.75 40.0138C38.5 39.2728 39.75 38.0378 40.5 36.3088C41.5 33.5918 41.25 27.4169 41.25 24.6999C41.25 21.9829 41.5 15.5609 40.5 13.0909C40 11.3619 38.5 9.87995 36.75 9.38595C34.25 8.15096 28 8.39795 25 8.39795ZM45 24.6999V32.8508C45 35.8148 44 38.7788 41.75 41.2488C39.5 43.4718 36.5 44.4598 33.25 44.4598H16.75C13.75 44.4598 10.75 43.4718 8.25 41.2488C6.25 39.0258 5 36.0618 5 32.8508V24.6999V16.5489C5 13.3379 6.25 10.3739 8.25 8.15096C10.75 6.17497 13.75 4.93997 16.75 4.93997H33.25C36.25 4.93997 39.25 5.92797 41.75 8.15096C43.75 10.3739 45 13.3379 45 16.5489V24.6999Z" fill="#32297C"/>
</svg>
