<svg width="50" height="50" viewBox="0 0 50 50" fill="none" xmlns="http://www.w3.org/2000/svg">
<path d="M47.35 11.554C46.125 13.3571 44.575 14.9626 42.775 16.247C42.8 16.6175 42.8 17.0127 42.8 17.4079C42.8 29.3873 33.575 43.1946 16.725 43.1946C11.55 43.1946 6.72496 41.6879 2.64996 39.1191C3.37496 39.1932 4.09996 39.2426 4.84996 39.2426C9.14996 39.2426 13.1 37.7853 16.225 35.3647C12.225 35.2906 8.84996 32.6724 7.67496 29.0662C8.22496 29.165 8.79996 29.2391 9.39996 29.2391C10.225 29.2391 11.05 29.1156 11.8 28.918C7.62496 28.0782 4.44996 24.4227 4.44996 20.0261V19.9273C5.69996 20.5942 7.09996 21.0141 8.59996 21.0635C6.14996 19.4333 4.52496 16.6669 4.52496 13.5053C4.52496 11.8504 4.97496 10.2943 5.77496 8.96054C10.3 14.4439 17.05 18.0501 24.675 18.4206C24.525 17.7537 24.425 17.0621 24.425 16.3458C24.425 11.3564 28.55 7.30565 33.6 7.30565C36.25 7.30565 38.625 8.39244 40.3 10.1708C42.375 9.75094 44.35 9.00994 46.125 7.97255C45.425 10.072 43.975 11.8504 42.075 12.9619C43.95 12.7643 45.7 12.2703 47.35 11.554Z" fill="#32297C"/>
</svg>
